<mxfile host="app.diagrams.net" modified="2023-04-20T18:25:07.185Z" agent="5.0 (Windows NT 10.0; Win64; x64) AppleWebKit/537.36 (KHTML, like Gecko) Chrome/112.0.0.0 Safari/537.36" etag="MBSU93qEhnXoTneFojwu" version="20.7.4" type="github">
  <diagram name="TechnicianView" id="c9db0220-8083-56f3-ca83-edcdcd058819">
    <mxGraphModel dx="1909" dy="1173" grid="1" gridSize="10" guides="1" tooltips="1" connect="1" arrows="1" fold="1" page="1" pageScale="1.5" pageWidth="826" pageHeight="1169" background="none" math="0" shadow="0">
      <root>
        <mxCell id="0" style=";html=1;" />
        <mxCell id="1" style=";html=1;" parent="0" />
        <mxCell id="1rZEBC7IiJ6ygyNQz-kA-34" value="" style="html=1;shadow=0;dashed=0;shape=mxgraph.bootstrap.rrect;rSize=5;strokeColor=#DFDFDF;html=1;whiteSpace=wrap;fillColor=#FFFFFF;fontColor=#000000;" parent="1" vertex="1">
          <mxGeometry x="30" y="40" width="1150" height="750" as="geometry" />
        </mxCell>
        <mxCell id="1rZEBC7IiJ6ygyNQz-kA-35" value="" style="html=1;shadow=0;dashed=0;shape=mxgraph.bootstrap.topButton;strokeColor=inherit;fillColor=#F7F7F7;rSize=5;perimeter=none;whiteSpace=wrap;resizeWidth=1;align=center;spacing=20;fontSize=14;fontColor=#FFFFFF;" parent="1rZEBC7IiJ6ygyNQz-kA-34" vertex="1">
          <mxGeometry width="1150" height="50" relative="1" as="geometry" />
        </mxCell>
        <mxCell id="1rZEBC7IiJ6ygyNQz-kA-41" value="tech@company.com (technician)" style="html=1;shadow=0;dashed=0;fillColor=none;strokeColor=none;shape=mxgraph.bootstrap.rect;fontColor=#999999;whiteSpace=wrap;movable=1;resizable=1;rotatable=1;deletable=1;editable=1;connectable=1;" parent="1rZEBC7IiJ6ygyNQz-kA-34" vertex="1">
          <mxGeometry x="850" y="8.928571428571427" width="200" height="41.07142857142857" as="geometry" />
        </mxCell>
        <mxCell id="1rZEBC7IiJ6ygyNQz-kA-42" value="Log Out" style="html=1;shadow=0;dashed=0;fillColor=none;strokeColor=none;shape=mxgraph.bootstrap.rect;fontColor=#999999;whiteSpace=wrap;" parent="1rZEBC7IiJ6ygyNQz-kA-34" vertex="1">
          <mxGeometry x="1050" y="8.858571428571427" width="84.65" height="41.07142857142857" as="geometry" />
        </mxCell>
        <mxCell id="1rZEBC7IiJ6ygyNQz-kA-50" value="" style="group" parent="1rZEBC7IiJ6ygyNQz-kA-34" vertex="1" connectable="0">
          <mxGeometry x="10" y="16.43" width="130" height="33.57" as="geometry" />
        </mxCell>
        <mxCell id="1rZEBC7IiJ6ygyNQz-kA-36" value="Product 1" style="html=1;shadow=0;dashed=0;shape=mxgraph.bootstrap.tabTop;strokeColor=#DFDFDF;fillColor=#ffffff;rSize=5;perimeter=none;whiteSpace=wrap;resizeWidth=1;align=left;spacing=20;fontSize=14;fontColor=#00CC00;" parent="1rZEBC7IiJ6ygyNQz-kA-50" vertex="1">
          <mxGeometry width="130" height="40" relative="1" as="geometry">
            <mxPoint y="-3" as="offset" />
          </mxGeometry>
        </mxCell>
        <mxCell id="1rZEBC7IiJ6ygyNQz-kA-43" value="" style="html=1;shadow=0;dashed=0;shape=mxgraph.basic.arc;startAngle=0;endAngle=1;strokeWidth=4;strokeColor=#34A64D;fontColor=#FF3333;fillColor=#FFCCCC;" parent="1rZEBC7IiJ6ygyNQz-kA-50" vertex="1">
          <mxGeometry x="90" y="4" width="20" height="20" as="geometry" />
        </mxCell>
        <mxCell id="1rZEBC7IiJ6ygyNQz-kA-48" value="" style="group" parent="1rZEBC7IiJ6ygyNQz-kA-34" vertex="1" connectable="0">
          <mxGeometry x="140" y="16.43" width="120" height="33.5" as="geometry" />
        </mxCell>
        <mxCell id="1rZEBC7IiJ6ygyNQz-kA-37" value="Product 2" style="strokeColor=none;fillColor=none;rSize=5;perimeter=none;whiteSpace=wrap;resizeWidth=1;align=left;spacing=20;fontSize=14;fontColor=#FF9933;" parent="1rZEBC7IiJ6ygyNQz-kA-48" vertex="1">
          <mxGeometry width="120" height="40" relative="1" as="geometry">
            <mxPoint y="-3" as="offset" />
          </mxGeometry>
        </mxCell>
        <mxCell id="1rZEBC7IiJ6ygyNQz-kA-45" value="" style="html=1;shadow=0;dashed=0;shape=mxgraph.basic.arc;startAngle=0.25;endAngle=1;strokeWidth=4;strokeColor=#FF9933;fontColor=#FF3333;fillColor=#FFCCCC;" parent="1rZEBC7IiJ6ygyNQz-kA-48" vertex="1">
          <mxGeometry x="90" y="5" width="20" height="19.958296097706285" as="geometry" />
        </mxCell>
        <mxCell id="1rZEBC7IiJ6ygyNQz-kA-55" value="" style="fillColor=#F8F9FA;strokeColor=none;align=left;fontSize=14;fontColor=#323232;" parent="1rZEBC7IiJ6ygyNQz-kA-34" vertex="1">
          <mxGeometry x="10" y="100" width="300" height="550" as="geometry" />
        </mxCell>
        <mxCell id="1rZEBC7IiJ6ygyNQz-kA-57" value="Test A" style="html=1;shadow=0;dashed=0;shape=mxgraph.bootstrap.rrect;rSize=5;fillColor=#0085FC;strokeColor=none;perimeter=none;whiteSpace=wrap;align=left;spacing=15;fontColor=#FFFFFF;fontSize=14;" parent="1rZEBC7IiJ6ygyNQz-kA-55" vertex="1">
          <mxGeometry x="0.5" width="100" height="40" relative="1" as="geometry">
            <mxPoint x="-50" y="40" as="offset" />
          </mxGeometry>
        </mxCell>
        <mxCell id="1rZEBC7IiJ6ygyNQz-kA-58" value="Test B" style="html=1;shadow=0;dashed=0;fillColor=none;strokeColor=none;perimeter=none;whiteSpace=wrap;align=left;spacing=15;fontColor=#0085FC;fontSize=14;" parent="1rZEBC7IiJ6ygyNQz-kA-55" vertex="1">
          <mxGeometry x="0.5" width="100" height="40" relative="1" as="geometry">
            <mxPoint x="-50" y="80" as="offset" />
          </mxGeometry>
        </mxCell>
        <mxCell id="1rZEBC7IiJ6ygyNQz-kA-59" value="Test C" style="html=1;shadow=0;dashed=0;fillColor=none;strokeColor=none;perimeter=none;whiteSpace=wrap;align=left;spacing=15;fontColor=#0085FC;fontSize=14;" parent="1rZEBC7IiJ6ygyNQz-kA-55" vertex="1">
          <mxGeometry x="0.5" width="100" height="40" relative="1" as="geometry">
            <mxPoint x="-50" y="120" as="offset" />
          </mxGeometry>
        </mxCell>
        <mxCell id="1rZEBC7IiJ6ygyNQz-kA-60" value="Test D" style="html=1;shadow=0;dashed=0;fillColor=none;strokeColor=none;perimeter=none;whiteSpace=wrap;align=left;spacing=15;fontColor=#0085FC;fontSize=14;" parent="1rZEBC7IiJ6ygyNQz-kA-55" vertex="1">
          <mxGeometry x="0.5" width="100" height="40" relative="1" as="geometry">
            <mxPoint x="-50" y="160" as="offset" />
          </mxGeometry>
        </mxCell>
        <mxCell id="1rZEBC7IiJ6ygyNQz-kA-61" value="Test E" style="html=1;shadow=0;dashed=0;fillColor=none;strokeColor=none;perimeter=none;whiteSpace=wrap;align=left;spacing=15;fontColor=#0085FC;fontSize=14;" parent="1rZEBC7IiJ6ygyNQz-kA-55" vertex="1">
          <mxGeometry x="0.5" width="100" height="40" relative="1" as="geometry">
            <mxPoint x="-50" y="200" as="offset" />
          </mxGeometry>
        </mxCell>
        <mxCell id="1rZEBC7IiJ6ygyNQz-kA-62" value="Test F" style="html=1;shadow=0;dashed=0;fillColor=none;strokeColor=none;perimeter=none;whiteSpace=wrap;align=left;spacing=15;fontColor=#0085FC;fontSize=14;" parent="1rZEBC7IiJ6ygyNQz-kA-55" vertex="1">
          <mxGeometry x="0.5" width="100" height="40" relative="1" as="geometry">
            <mxPoint x="-50" y="240" as="offset" />
          </mxGeometry>
        </mxCell>
        <mxCell id="1rZEBC7IiJ6ygyNQz-kA-63" value="Test G" style="html=1;shadow=0;dashed=0;fillColor=none;strokeColor=none;perimeter=none;whiteSpace=wrap;align=left;spacing=15;fontColor=#0085FC;fontSize=14;" parent="1rZEBC7IiJ6ygyNQz-kA-55" vertex="1">
          <mxGeometry x="0.5" width="100" height="40" relative="1" as="geometry">
            <mxPoint x="-50" y="280" as="offset" />
          </mxGeometry>
        </mxCell>
        <mxCell id="1rZEBC7IiJ6ygyNQz-kA-52" value="" style="group;strokeColor=#C9C9C9;" parent="1rZEBC7IiJ6ygyNQz-kA-34" vertex="1" connectable="0">
          <mxGeometry x="10" y="710" width="1110" height="25" as="geometry" />
        </mxCell>
        <mxCell id="1rZEBC7IiJ6ygyNQz-kA-53" value="" style="html=1;shadow=0;dashed=0;shape=mxgraph.bootstrap.leftButtonStriped;fillColor=#59B958;fontColor=#FFFFFF;whiteSpace=wrap;strokeColor=#C9C9C9;" parent="1rZEBC7IiJ6ygyNQz-kA-52" vertex="1">
          <mxGeometry width="100" height="25" as="geometry" />
        </mxCell>
        <mxCell id="1rZEBC7IiJ6ygyNQz-kA-54" value="&lt;font color=&quot;#000000&quot;&gt;10%&lt;/font&gt;" style="text;html=1;strokeColor=none;fillColor=none;align=center;verticalAlign=middle;whiteSpace=wrap;rounded=0;fontColor=#FFFFFF;" parent="1rZEBC7IiJ6ygyNQz-kA-52" vertex="1">
          <mxGeometry x="-0.0036842105262167024" width="58.42105263157895" height="25" as="geometry" />
        </mxCell>
        <mxCell id="1rZEBC7IiJ6ygyNQz-kA-79" value="" style="html=1;shadow=0;dashed=0;shape=mxgraph.bootstrap.rrect;rSize=5;strokeColor=#DFDFDF;html=1;whiteSpace=wrap;fillColor=#FFFFFF;fontColor=#000000;" parent="1rZEBC7IiJ6ygyNQz-kA-34" vertex="1">
          <mxGeometry x="320" y="100" width="800" height="260" as="geometry" />
        </mxCell>
        <mxCell id="1rZEBC7IiJ6ygyNQz-kA-80" value="&lt;font style=&quot;font-size: 20px;&quot; color=&quot;#000000&quot;&gt;&lt;i&gt;&lt;u&gt;Test A progress&lt;/u&gt;&lt;/i&gt;&lt;/font&gt;" style="html=1;shadow=0;dashed=0;shape=mxgraph.bootstrap.topButton;strokeColor=inherit;fillColor=#F7F7F7;rSize=5;perimeter=none;whiteSpace=wrap;resizeWidth=1;align=left;spacing=20;fontSize=14;fontColor=#FF3333;" parent="1rZEBC7IiJ6ygyNQz-kA-79" vertex="1">
          <mxGeometry width="800" height="40" relative="1" as="geometry" />
        </mxCell>
        <mxCell id="1rZEBC7IiJ6ygyNQz-kA-81" value="&lt;span style=&quot;color: rgb(50, 50, 50);&quot;&gt;&amp;gt; 10:37:00 : Beginning test&lt;/span&gt;&lt;br style=&quot;border-color: var(--border-color); color: rgb(50, 50, 50);&quot;&gt;&lt;span style=&quot;color: rgb(50, 50, 50);&quot;&gt;&amp;gt; 10:37:05 : Phase A of test proceeding&lt;/span&gt;&lt;br style=&quot;border-color: var(--border-color); color: rgb(50, 50, 50);&quot;&gt;&lt;span style=&quot;color: rgb(50, 50, 50);&quot;&gt;&amp;gt; 10:37:45 : Parameters for Phase A met&amp;nbsp;&lt;/span&gt;&lt;br style=&quot;border-color: var(--border-color); color: rgb(50, 50, 50);&quot;&gt;&lt;span style=&quot;color: rgb(50, 50, 50);&quot;&gt;&amp;gt; 10:37:50 : Test complete&lt;/span&gt;" style="perimeter=none;html=1;whiteSpace=wrap;fillColor=none;strokeColor=none;resizeWidth=1;verticalAlign=top;align=left;spacing=20;spacingTop=-10;fontSize=14;fontColor=#FF3333;" parent="1rZEBC7IiJ6ygyNQz-kA-79" vertex="1">
          <mxGeometry width="800" height="80" relative="1" as="geometry">
            <mxPoint y="40" as="offset" />
          </mxGeometry>
        </mxCell>
        <mxCell id="1rZEBC7IiJ6ygyNQz-kA-85" value="" style="html=1;shadow=0;dashed=0;shape=mxgraph.bootstrap.rrect;rSize=5;strokeColor=#DFDFDF;html=1;whiteSpace=wrap;fillColor=#FFFFFF;fontColor=#000000;fontSize=20;" parent="1rZEBC7IiJ6ygyNQz-kA-34" vertex="1">
          <mxGeometry x="320" y="370" width="800" height="280" as="geometry" />
        </mxCell>
        <mxCell id="1rZEBC7IiJ6ygyNQz-kA-86" value="&lt;font style=&quot;font-size: 20px;&quot;&gt;&lt;u&gt;&lt;i&gt;Technician Actions&lt;/i&gt;&lt;/u&gt;&lt;/font&gt;" style="html=1;shadow=0;dashed=0;shape=mxgraph.bootstrap.topButton;strokeColor=inherit;fillColor=#F7F7F7;rSize=5;perimeter=none;whiteSpace=wrap;resizeWidth=1;align=left;spacing=20;fontSize=14;fontColor=#000000;" parent="1rZEBC7IiJ6ygyNQz-kA-85" vertex="1">
          <mxGeometry width="800" height="40" relative="1" as="geometry" />
        </mxCell>
        <mxCell id="1rZEBC7IiJ6ygyNQz-kA-87" value="&lt;span style=&quot;font-size: 20px;&quot;&gt;&lt;span style=&quot;font-size: 16px;&quot;&gt;None&lt;/span&gt;&lt;/span&gt;" style="perimeter=none;html=1;whiteSpace=wrap;fillColor=none;strokeColor=none;resizeWidth=1;verticalAlign=top;align=left;spacing=20;spacingTop=-10;fontSize=14;fontColor=#000000;" parent="1rZEBC7IiJ6ygyNQz-kA-85" vertex="1">
          <mxGeometry width="800" height="120" relative="1" as="geometry">
            <mxPoint y="40" as="offset" />
          </mxGeometry>
        </mxCell>
        <mxCell id="SilbnRKZhBk0i6iUXmSS-11" value="" style="group" vertex="1" connectable="0" parent="1rZEBC7IiJ6ygyNQz-kA-34">
          <mxGeometry x="250" y="16.43" width="120" height="35" as="geometry" />
        </mxCell>
        <mxCell id="SilbnRKZhBk0i6iUXmSS-12" value="&lt;font color=&quot;#ff0000&quot;&gt;Product 3&lt;/font&gt;" style="strokeColor=none;fillColor=none;rSize=5;perimeter=none;whiteSpace=wrap;resizeWidth=1;align=left;spacing=20;fontSize=14;fontColor=#FF0000;fontColor=#4B5259;html=1;" vertex="1" parent="SilbnRKZhBk0i6iUXmSS-11">
          <mxGeometry width="120" height="35" as="geometry" />
        </mxCell>
        <mxCell id="SilbnRKZhBk0i6iUXmSS-13" value="" style="html=1;shadow=0;dashed=0;shape=mxgraph.basic.arc;startAngle=0.4;endAngle=1;strokeWidth=4;strokeColor=#FF0000;fontColor=#FF3333;fillColor=#FFCCCC;" vertex="1" parent="SilbnRKZhBk0i6iUXmSS-11">
          <mxGeometry x="90" y="5.49999999999995" width="20" height="20" as="geometry" />
        </mxCell>
        <mxCell id="1rZEBC7IiJ6ygyNQz-kA-89" value="" style="html=1;shadow=0;dashed=0;shape=mxgraph.bootstrap.rrect;rSize=5;strokeColor=#DFDFDF;html=1;whiteSpace=wrap;fillColor=#FFFFFF;fontColor=#000000;" parent="1" vertex="1">
          <mxGeometry x="44" y="830" width="1150" height="750" as="geometry" />
        </mxCell>
        <mxCell id="1rZEBC7IiJ6ygyNQz-kA-90" value="" style="html=1;shadow=0;dashed=0;shape=mxgraph.bootstrap.topButton;strokeColor=inherit;fillColor=#F7F7F7;rSize=5;perimeter=none;whiteSpace=wrap;resizeWidth=1;align=center;spacing=20;fontSize=14;fontColor=#FFFFFF;" parent="1rZEBC7IiJ6ygyNQz-kA-89" vertex="1">
          <mxGeometry width="1150" height="50" relative="1" as="geometry" />
        </mxCell>
        <mxCell id="1rZEBC7IiJ6ygyNQz-kA-92" value="tech@company.com (technician)" style="html=1;shadow=0;dashed=0;fillColor=none;strokeColor=none;shape=mxgraph.bootstrap.rect;fontColor=#999999;whiteSpace=wrap;movable=1;resizable=1;rotatable=1;deletable=1;editable=1;connectable=1;" parent="1rZEBC7IiJ6ygyNQz-kA-89" vertex="1">
          <mxGeometry x="850" y="8.928571428571427" width="200" height="41.07142857142857" as="geometry" />
        </mxCell>
        <mxCell id="1rZEBC7IiJ6ygyNQz-kA-93" value="Log Out" style="html=1;shadow=0;dashed=0;fillColor=none;strokeColor=none;shape=mxgraph.bootstrap.rect;fontColor=#999999;whiteSpace=wrap;" parent="1rZEBC7IiJ6ygyNQz-kA-89" vertex="1">
          <mxGeometry x="1050" y="8.858571428571427" width="84.65" height="41.07142857142857" as="geometry" />
        </mxCell>
        <mxCell id="1rZEBC7IiJ6ygyNQz-kA-97" value="" style="group" parent="1rZEBC7IiJ6ygyNQz-kA-89" vertex="1" connectable="0">
          <mxGeometry x="10" y="16.43" width="130" height="33.57" as="geometry" />
        </mxCell>
        <mxCell id="1rZEBC7IiJ6ygyNQz-kA-99" value="" style="html=1;shadow=0;dashed=0;shape=mxgraph.basic.arc;startAngle=0;endAngle=1;strokeWidth=4;strokeColor=#34A64D;fontColor=#FF3333;fillColor=#FFCCCC;" parent="1rZEBC7IiJ6ygyNQz-kA-97" vertex="1">
          <mxGeometry x="90" y="4" width="20" height="20" as="geometry" />
        </mxCell>
        <mxCell id="1rZEBC7IiJ6ygyNQz-kA-103" value="" style="fillColor=#F8F9FA;strokeColor=none;align=left;fontSize=14;fontColor=#323232;" parent="1rZEBC7IiJ6ygyNQz-kA-89" vertex="1">
          <mxGeometry x="10" y="100" width="306" height="550" as="geometry" />
        </mxCell>
        <mxCell id="1rZEBC7IiJ6ygyNQz-kA-106" value="Test B" style="html=1;shadow=0;dashed=0;fillColor=none;strokeColor=none;perimeter=none;whiteSpace=wrap;align=left;spacing=15;fontColor=#0085FC;fontSize=14;" parent="1rZEBC7IiJ6ygyNQz-kA-103" vertex="1">
          <mxGeometry x="0.5" width="100" height="40" relative="1" as="geometry">
            <mxPoint x="-50" y="80" as="offset" />
          </mxGeometry>
        </mxCell>
        <mxCell id="1rZEBC7IiJ6ygyNQz-kA-107" value="Test C" style="html=1;shadow=0;dashed=0;fillColor=none;strokeColor=none;perimeter=none;whiteSpace=wrap;align=left;spacing=15;fontColor=#0085FC;fontSize=14;" parent="1rZEBC7IiJ6ygyNQz-kA-103" vertex="1">
          <mxGeometry x="0.5" width="100" height="40" relative="1" as="geometry">
            <mxPoint x="-50" y="120" as="offset" />
          </mxGeometry>
        </mxCell>
        <mxCell id="1rZEBC7IiJ6ygyNQz-kA-108" value="Test D" style="html=1;shadow=0;dashed=0;fillColor=none;strokeColor=none;perimeter=none;whiteSpace=wrap;align=left;spacing=15;fontColor=#0085FC;fontSize=14;" parent="1rZEBC7IiJ6ygyNQz-kA-103" vertex="1">
          <mxGeometry x="0.5" width="100" height="40" relative="1" as="geometry">
            <mxPoint x="-50" y="160" as="offset" />
          </mxGeometry>
        </mxCell>
        <mxCell id="1rZEBC7IiJ6ygyNQz-kA-109" value="Test E" style="html=1;shadow=0;dashed=0;fillColor=none;strokeColor=none;perimeter=none;whiteSpace=wrap;align=left;spacing=15;fontColor=#0085FC;fontSize=14;" parent="1rZEBC7IiJ6ygyNQz-kA-103" vertex="1">
          <mxGeometry x="0.5" width="100" height="40" relative="1" as="geometry">
            <mxPoint x="-50" y="200" as="offset" />
          </mxGeometry>
        </mxCell>
        <mxCell id="1rZEBC7IiJ6ygyNQz-kA-110" value="Test F" style="html=1;shadow=0;dashed=0;fillColor=none;strokeColor=none;perimeter=none;whiteSpace=wrap;align=left;spacing=15;fontColor=#0085FC;fontSize=14;" parent="1rZEBC7IiJ6ygyNQz-kA-103" vertex="1">
          <mxGeometry x="0.5" width="100" height="40" relative="1" as="geometry">
            <mxPoint x="-50" y="240" as="offset" />
          </mxGeometry>
        </mxCell>
        <mxCell id="1rZEBC7IiJ6ygyNQz-kA-111" value="Test G" style="html=1;shadow=0;dashed=0;fillColor=none;strokeColor=none;perimeter=none;whiteSpace=wrap;align=left;spacing=15;fontColor=#0085FC;fontSize=14;" parent="1rZEBC7IiJ6ygyNQz-kA-103" vertex="1">
          <mxGeometry x="0.5" width="100" height="40" relative="1" as="geometry">
            <mxPoint x="-50" y="280" as="offset" />
          </mxGeometry>
        </mxCell>
        <mxCell id="1rZEBC7IiJ6ygyNQz-kA-174" value="Test D" style="html=1;shadow=0;dashed=0;shape=mxgraph.bootstrap.rrect;rSize=5;fillColor=#0085FC;strokeColor=none;perimeter=none;whiteSpace=wrap;align=left;spacing=15;fontColor=#FFFFFF;fontSize=14;" parent="1rZEBC7IiJ6ygyNQz-kA-103" vertex="1">
          <mxGeometry x="100" y="160" width="100" height="40" as="geometry" />
        </mxCell>
        <mxCell id="1rZEBC7IiJ6ygyNQz-kA-175" value="Test A" style="html=1;shadow=0;dashed=0;fillColor=none;strokeColor=none;perimeter=none;whiteSpace=wrap;align=left;spacing=15;fontColor=#0085FC;fontSize=14;" parent="1rZEBC7IiJ6ygyNQz-kA-103" vertex="1">
          <mxGeometry x="100" y="40" width="100" height="40" as="geometry" />
        </mxCell>
        <mxCell id="1rZEBC7IiJ6ygyNQz-kA-112" value="" style="group;strokeColor=#C9C9C9;" parent="1rZEBC7IiJ6ygyNQz-kA-89" vertex="1" connectable="0">
          <mxGeometry x="10" y="710" width="1110" height="25" as="geometry" />
        </mxCell>
        <mxCell id="1rZEBC7IiJ6ygyNQz-kA-113" value="" style="html=1;shadow=0;dashed=0;shape=mxgraph.bootstrap.leftButtonStriped;fillColor=#FF9933;fontColor=#FFFFFF;whiteSpace=wrap;strokeColor=#C9C9C9;" parent="1rZEBC7IiJ6ygyNQz-kA-112" vertex="1">
          <mxGeometry width="100" height="25" as="geometry" />
        </mxCell>
        <mxCell id="1rZEBC7IiJ6ygyNQz-kA-114" value="&lt;font color=&quot;#000000&quot;&gt;10%&lt;/font&gt;" style="text;html=1;strokeColor=none;fillColor=none;align=center;verticalAlign=middle;whiteSpace=wrap;rounded=0;fontColor=#FFFFFF;" parent="1rZEBC7IiJ6ygyNQz-kA-112" vertex="1">
          <mxGeometry x="-0.0036842105262167024" width="58.42105263157895" height="25" as="geometry" />
        </mxCell>
        <mxCell id="1rZEBC7IiJ6ygyNQz-kA-115" value="" style="html=1;shadow=0;dashed=0;shape=mxgraph.bootstrap.rrect;rSize=5;strokeColor=#DFDFDF;html=1;whiteSpace=wrap;fillColor=#FFFFFF;fontColor=#000000;" parent="1rZEBC7IiJ6ygyNQz-kA-89" vertex="1">
          <mxGeometry x="320" y="100" width="800" height="260" as="geometry" />
        </mxCell>
        <mxCell id="1rZEBC7IiJ6ygyNQz-kA-116" value="&lt;font style=&quot;font-size: 20px;&quot; color=&quot;#000000&quot;&gt;&lt;i&gt;&lt;u&gt;Test D progress&lt;/u&gt;&lt;/i&gt;&lt;/font&gt;" style="html=1;shadow=0;dashed=0;shape=mxgraph.bootstrap.topButton;strokeColor=inherit;fillColor=#F7F7F7;rSize=5;perimeter=none;whiteSpace=wrap;resizeWidth=1;align=left;spacing=20;fontSize=14;fontColor=#FF3333;" parent="1rZEBC7IiJ6ygyNQz-kA-115" vertex="1">
          <mxGeometry width="800" height="40" relative="1" as="geometry" />
        </mxCell>
        <mxCell id="1rZEBC7IiJ6ygyNQz-kA-117" value="&lt;span style=&quot;color: rgb(50, 50, 50);&quot;&gt;&amp;gt; 10:37:00 : Beginning test&lt;/span&gt;&lt;br style=&quot;border-color: var(--border-color); color: rgb(50, 50, 50);&quot;&gt;&lt;span style=&quot;color: rgb(50, 50, 50);&quot;&gt;&amp;gt; 10:37:05 : Phase A of test proceeding&lt;/span&gt;&lt;br style=&quot;border-color: var(--border-color); color: rgb(50, 50, 50);&quot;&gt;&lt;span style=&quot;color: rgb(50, 50, 50);&quot;&gt;&amp;gt; 10:37:45 : Potential test collision encountered, awaiting technician intervention&lt;/span&gt;" style="perimeter=none;html=1;whiteSpace=wrap;fillColor=none;strokeColor=none;resizeWidth=1;verticalAlign=top;align=left;spacing=20;spacingTop=-10;fontSize=14;fontColor=#FF3333;" parent="1rZEBC7IiJ6ygyNQz-kA-115" vertex="1">
          <mxGeometry width="800" height="80" relative="1" as="geometry">
            <mxPoint y="40" as="offset" />
          </mxGeometry>
        </mxCell>
        <mxCell id="1rZEBC7IiJ6ygyNQz-kA-118" value="" style="html=1;shadow=0;dashed=0;shape=mxgraph.bootstrap.rrect;rSize=5;strokeColor=#DFDFDF;html=1;whiteSpace=wrap;fillColor=#FFFFFF;fontColor=#000000;fontSize=20;" parent="1rZEBC7IiJ6ygyNQz-kA-89" vertex="1">
          <mxGeometry x="320" y="370" width="800" height="280" as="geometry" />
        </mxCell>
        <mxCell id="1rZEBC7IiJ6ygyNQz-kA-119" value="&lt;font style=&quot;font-size: 20px;&quot;&gt;&lt;u&gt;&lt;i&gt;Technician Actions&lt;/i&gt;&lt;/u&gt;&lt;/font&gt;" style="html=1;shadow=0;dashed=0;shape=mxgraph.bootstrap.topButton;strokeColor=inherit;fillColor=#F7F7F7;rSize=5;perimeter=none;whiteSpace=wrap;resizeWidth=1;align=left;spacing=20;fontSize=14;fontColor=#000000;" parent="1rZEBC7IiJ6ygyNQz-kA-118" vertex="1">
          <mxGeometry width="800" height="40" relative="1" as="geometry" />
        </mxCell>
        <mxCell id="1rZEBC7IiJ6ygyNQz-kA-120" value="&lt;span style=&quot;font-size: 20px;&quot;&gt;&lt;span style=&quot;font-size: 16px;&quot;&gt;Test rail encountered a collision while performing test. Please check the rail and press &#39;Retry&#39; if ok to retry, or press &#39;Abort&#39; to abort and fail this test and proceed to the next test.&lt;/span&gt;&lt;/span&gt;" style="perimeter=none;html=1;whiteSpace=wrap;fillColor=none;strokeColor=none;resizeWidth=1;verticalAlign=top;align=left;spacing=20;spacingTop=-10;fontSize=14;fontColor=#000000;" parent="1rZEBC7IiJ6ygyNQz-kA-118" vertex="1">
          <mxGeometry width="800" height="120" relative="1" as="geometry">
            <mxPoint y="40" as="offset" />
          </mxGeometry>
        </mxCell>
        <mxCell id="1rZEBC7IiJ6ygyNQz-kA-121" value="Retry" style="html=1;shadow=0;dashed=0;shape=mxgraph.bootstrap.rrect;rSize=5;perimeter=none;whiteSpace=wrap;fillColor=#0085FC;strokeColor=none;fontColor=#ffffff;resizeWidth=1;fontSize=14;" parent="1rZEBC7IiJ6ygyNQz-kA-118" vertex="1">
          <mxGeometry y="1" width="120" height="40" relative="1" as="geometry">
            <mxPoint x="20" y="-60" as="offset" />
          </mxGeometry>
        </mxCell>
        <mxCell id="1rZEBC7IiJ6ygyNQz-kA-176" value="Abort" style="html=1;shadow=0;dashed=0;shape=mxgraph.bootstrap.rrect;rSize=5;perimeter=none;whiteSpace=wrap;fillColor=#0085FC;strokeColor=none;fontColor=#ffffff;resizeWidth=1;fontSize=14;" parent="1rZEBC7IiJ6ygyNQz-kA-118" vertex="1">
          <mxGeometry x="166" y="220" width="120" height="40" as="geometry" />
        </mxCell>
        <mxCell id="1rZEBC7IiJ6ygyNQz-kA-161" value="" style="group" parent="1rZEBC7IiJ6ygyNQz-kA-89" vertex="1" connectable="0">
          <mxGeometry x="140" y="13.209999999999887" width="130.00000000000006" height="40" as="geometry" />
        </mxCell>
        <mxCell id="1rZEBC7IiJ6ygyNQz-kA-156" value="" style="html=1;shadow=0;dashed=0;shape=mxgraph.bootstrap.tabTop;strokeColor=#DFDFDF;fillColor=#ffffff;rSize=5;perimeter=none;whiteSpace=wrap;resizeWidth=1;align=left;spacing=20;fontSize=14;fontColor=#00CC00;" parent="1rZEBC7IiJ6ygyNQz-kA-161" vertex="1">
          <mxGeometry x="5.684341886080802e-14" width="130" height="40" as="geometry" />
        </mxCell>
        <mxCell id="1rZEBC7IiJ6ygyNQz-kA-100" value="" style="group" parent="1rZEBC7IiJ6ygyNQz-kA-161" vertex="1" connectable="0">
          <mxGeometry y="3.2500000000001137" width="120" height="33.5" as="geometry" />
        </mxCell>
        <mxCell id="1rZEBC7IiJ6ygyNQz-kA-101" value="Product 2" style="strokeColor=none;fillColor=none;rSize=5;perimeter=none;whiteSpace=wrap;resizeWidth=1;align=left;spacing=20;fontSize=14;fontColor=#FF9933;" parent="1rZEBC7IiJ6ygyNQz-kA-100" vertex="1">
          <mxGeometry width="120" height="40" relative="1" as="geometry">
            <mxPoint y="-3" as="offset" />
          </mxGeometry>
        </mxCell>
        <mxCell id="1rZEBC7IiJ6ygyNQz-kA-102" value="" style="html=1;shadow=0;dashed=0;shape=mxgraph.basic.arc;startAngle=0.25;endAngle=1;strokeWidth=4;strokeColor=#FF9933;fontColor=#FF9933;fillColor=#FFCCCC;" parent="1rZEBC7IiJ6ygyNQz-kA-100" vertex="1">
          <mxGeometry x="90" y="5" width="20" height="19.958296097706285" as="geometry" />
        </mxCell>
        <mxCell id="1rZEBC7IiJ6ygyNQz-kA-173" value="&lt;font color=&quot;#00cc00&quot;&gt;Product 1&lt;/font&gt;" style="strokeColor=none;fillColor=none;rSize=5;perimeter=none;whiteSpace=wrap;resizeWidth=1;align=left;spacing=20;fontSize=14;fontColor=#00CC00;fontColor=#4B5259;html=1;" parent="1rZEBC7IiJ6ygyNQz-kA-89" vertex="1">
          <mxGeometry x="10" y="14.928571428571558" width="110" height="35" as="geometry" />
        </mxCell>
        <mxCell id="SilbnRKZhBk0i6iUXmSS-4" value="" style="group" vertex="1" connectable="0" parent="1rZEBC7IiJ6ygyNQz-kA-89">
          <mxGeometry x="270" y="14.93" width="120" height="35" as="geometry" />
        </mxCell>
        <mxCell id="SilbnRKZhBk0i6iUXmSS-10" value="" style="group" vertex="1" connectable="0" parent="SilbnRKZhBk0i6iUXmSS-4">
          <mxGeometry width="120" height="35" as="geometry" />
        </mxCell>
        <mxCell id="SilbnRKZhBk0i6iUXmSS-3" value="&lt;font color=&quot;#ff0000&quot;&gt;Product 3&lt;/font&gt;" style="strokeColor=none;fillColor=none;rSize=5;perimeter=none;whiteSpace=wrap;resizeWidth=1;align=left;spacing=20;fontSize=14;fontColor=#FF0000;fontColor=#4B5259;html=1;" vertex="1" parent="SilbnRKZhBk0i6iUXmSS-10">
          <mxGeometry width="120" height="35" as="geometry" />
        </mxCell>
        <mxCell id="SilbnRKZhBk0i6iUXmSS-2" value="" style="html=1;shadow=0;dashed=0;shape=mxgraph.basic.arc;startAngle=0.4;endAngle=1;strokeWidth=4;strokeColor=#FF0000;fontColor=#FF3333;fillColor=#FFCCCC;" vertex="1" parent="SilbnRKZhBk0i6iUXmSS-10">
          <mxGeometry x="90" y="5.49999999999995" width="20" height="20" as="geometry" />
        </mxCell>
        <mxCell id="SilbnRKZhBk0i6iUXmSS-15" value="" style="html=1;shadow=0;dashed=0;shape=mxgraph.bootstrap.rrect;rSize=5;strokeColor=#DFDFDF;html=1;whiteSpace=wrap;fillColor=#FFFFFF;fontColor=#000000;" vertex="1" parent="1">
          <mxGeometry x="45" y="1610" width="1150" height="750" as="geometry" />
        </mxCell>
        <mxCell id="SilbnRKZhBk0i6iUXmSS-16" value="" style="html=1;shadow=0;dashed=0;shape=mxgraph.bootstrap.topButton;strokeColor=inherit;fillColor=#F7F7F7;rSize=5;perimeter=none;whiteSpace=wrap;resizeWidth=1;align=center;spacing=20;fontSize=14;fontColor=#FFFFFF;" vertex="1" parent="SilbnRKZhBk0i6iUXmSS-15">
          <mxGeometry width="1150" height="50" relative="1" as="geometry" />
        </mxCell>
        <mxCell id="SilbnRKZhBk0i6iUXmSS-18" value="tech@company.com (technician)" style="html=1;shadow=0;dashed=0;fillColor=none;strokeColor=none;shape=mxgraph.bootstrap.rect;fontColor=#999999;whiteSpace=wrap;movable=1;resizable=1;rotatable=1;deletable=1;editable=1;connectable=1;" vertex="1" parent="SilbnRKZhBk0i6iUXmSS-15">
          <mxGeometry x="850" y="8.928571428571427" width="200" height="41.07142857142857" as="geometry" />
        </mxCell>
        <mxCell id="SilbnRKZhBk0i6iUXmSS-19" value="Log Out" style="html=1;shadow=0;dashed=0;fillColor=none;strokeColor=none;shape=mxgraph.bootstrap.rect;fontColor=#999999;whiteSpace=wrap;" vertex="1" parent="SilbnRKZhBk0i6iUXmSS-15">
          <mxGeometry x="1050" y="8.858571428571427" width="84.65" height="41.07142857142857" as="geometry" />
        </mxCell>
        <mxCell id="SilbnRKZhBk0i6iUXmSS-20" value="" style="group" vertex="1" connectable="0" parent="SilbnRKZhBk0i6iUXmSS-15">
          <mxGeometry x="10" y="16.43" width="130" height="33.57" as="geometry" />
        </mxCell>
        <mxCell id="SilbnRKZhBk0i6iUXmSS-21" value="" style="html=1;shadow=0;dashed=0;shape=mxgraph.basic.arc;startAngle=0;endAngle=1;strokeWidth=4;strokeColor=#34A64D;fontColor=#FF3333;fillColor=#FFCCCC;" vertex="1" parent="SilbnRKZhBk0i6iUXmSS-20">
          <mxGeometry x="90" y="4" width="20" height="20" as="geometry" />
        </mxCell>
        <mxCell id="SilbnRKZhBk0i6iUXmSS-22" value="" style="fillColor=#F8F9FA;strokeColor=none;align=left;fontSize=14;fontColor=#323232;" vertex="1" parent="SilbnRKZhBk0i6iUXmSS-15">
          <mxGeometry x="10" y="100" width="300" height="550" as="geometry" />
        </mxCell>
        <mxCell id="SilbnRKZhBk0i6iUXmSS-24" value="Test B" style="html=1;shadow=0;dashed=0;fillColor=none;strokeColor=none;perimeter=none;whiteSpace=wrap;align=left;spacing=15;fontColor=#0085FC;fontSize=14;" vertex="1" parent="SilbnRKZhBk0i6iUXmSS-22">
          <mxGeometry x="0.5" width="100" height="40" relative="1" as="geometry">
            <mxPoint x="-50" y="80" as="offset" />
          </mxGeometry>
        </mxCell>
        <mxCell id="SilbnRKZhBk0i6iUXmSS-25" value="Test C" style="html=1;shadow=0;dashed=0;fillColor=none;strokeColor=none;perimeter=none;whiteSpace=wrap;align=left;spacing=15;fontColor=#0085FC;fontSize=14;" vertex="1" parent="SilbnRKZhBk0i6iUXmSS-22">
          <mxGeometry x="0.5" width="100" height="40" relative="1" as="geometry">
            <mxPoint x="-50" y="120" as="offset" />
          </mxGeometry>
        </mxCell>
        <mxCell id="SilbnRKZhBk0i6iUXmSS-26" value="Test D" style="html=1;shadow=0;dashed=0;fillColor=none;strokeColor=none;perimeter=none;whiteSpace=wrap;align=left;spacing=15;fontColor=#0085FC;fontSize=14;" vertex="1" parent="SilbnRKZhBk0i6iUXmSS-22">
          <mxGeometry x="0.5" width="100" height="40" relative="1" as="geometry">
            <mxPoint x="-50" y="160" as="offset" />
          </mxGeometry>
        </mxCell>
        <mxCell id="SilbnRKZhBk0i6iUXmSS-27" value="Test E" style="html=1;shadow=0;dashed=0;fillColor=none;strokeColor=none;perimeter=none;whiteSpace=wrap;align=left;spacing=15;fontColor=#0085FC;fontSize=14;" vertex="1" parent="SilbnRKZhBk0i6iUXmSS-22">
          <mxGeometry x="0.5" width="100" height="40" relative="1" as="geometry">
            <mxPoint x="-50" y="200" as="offset" />
          </mxGeometry>
        </mxCell>
        <mxCell id="SilbnRKZhBk0i6iUXmSS-28" value="Test F" style="html=1;shadow=0;dashed=0;fillColor=none;strokeColor=none;perimeter=none;whiteSpace=wrap;align=left;spacing=15;fontColor=#0085FC;fontSize=14;" vertex="1" parent="SilbnRKZhBk0i6iUXmSS-22">
          <mxGeometry x="0.5" width="100" height="40" relative="1" as="geometry">
            <mxPoint x="-50" y="240" as="offset" />
          </mxGeometry>
        </mxCell>
        <mxCell id="SilbnRKZhBk0i6iUXmSS-29" value="Test G" style="html=1;shadow=0;dashed=0;fillColor=none;strokeColor=none;perimeter=none;whiteSpace=wrap;align=left;spacing=15;fontColor=#0085FC;fontSize=14;" vertex="1" parent="SilbnRKZhBk0i6iUXmSS-22">
          <mxGeometry x="0.5" width="100" height="40" relative="1" as="geometry">
            <mxPoint x="-50" y="280" as="offset" />
          </mxGeometry>
        </mxCell>
        <mxCell id="SilbnRKZhBk0i6iUXmSS-30" value="Test D" style="html=1;shadow=0;dashed=0;shape=mxgraph.bootstrap.rrect;rSize=5;fillColor=#0085FC;strokeColor=none;perimeter=none;whiteSpace=wrap;align=left;spacing=15;fontColor=#FFFFFF;fontSize=14;" vertex="1" parent="SilbnRKZhBk0i6iUXmSS-22">
          <mxGeometry x="100" y="160" width="100" height="40" as="geometry" />
        </mxCell>
        <mxCell id="SilbnRKZhBk0i6iUXmSS-31" value="Test A" style="html=1;shadow=0;dashed=0;fillColor=none;strokeColor=none;perimeter=none;whiteSpace=wrap;align=left;spacing=15;fontColor=#0085FC;fontSize=14;" vertex="1" parent="SilbnRKZhBk0i6iUXmSS-22">
          <mxGeometry x="100" y="40" width="100" height="40" as="geometry" />
        </mxCell>
        <mxCell id="SilbnRKZhBk0i6iUXmSS-32" value="" style="group;strokeColor=#C9C9C9;" vertex="1" connectable="0" parent="SilbnRKZhBk0i6iUXmSS-15">
          <mxGeometry x="10" y="710" width="1110" height="25" as="geometry" />
        </mxCell>
        <mxCell id="SilbnRKZhBk0i6iUXmSS-33" value="" style="html=1;shadow=0;dashed=0;shape=mxgraph.bootstrap.leftButtonStriped;fillColor=#FF9933;fontColor=#FFFFFF;whiteSpace=wrap;strokeColor=#C9C9C9;" vertex="1" parent="SilbnRKZhBk0i6iUXmSS-32">
          <mxGeometry width="100" height="25" as="geometry" />
        </mxCell>
        <mxCell id="SilbnRKZhBk0i6iUXmSS-34" value="&lt;font color=&quot;#000000&quot;&gt;10%&lt;/font&gt;" style="text;html=1;strokeColor=none;fillColor=none;align=center;verticalAlign=middle;whiteSpace=wrap;rounded=0;fontColor=#FFFFFF;" vertex="1" parent="SilbnRKZhBk0i6iUXmSS-32">
          <mxGeometry x="-0.0036842105262167024" width="58.42105263157895" height="25" as="geometry" />
        </mxCell>
        <mxCell id="SilbnRKZhBk0i6iUXmSS-35" value="" style="html=1;shadow=0;dashed=0;shape=mxgraph.bootstrap.rrect;rSize=5;strokeColor=#DFDFDF;html=1;whiteSpace=wrap;fillColor=#FFFFFF;fontColor=#000000;" vertex="1" parent="SilbnRKZhBk0i6iUXmSS-15">
          <mxGeometry x="320" y="100" width="800" height="260" as="geometry" />
        </mxCell>
        <mxCell id="SilbnRKZhBk0i6iUXmSS-36" value="&lt;font style=&quot;font-size: 20px;&quot; color=&quot;#000000&quot;&gt;&lt;i&gt;&lt;u&gt;Test D progress&lt;/u&gt;&lt;/i&gt;&lt;/font&gt;" style="html=1;shadow=0;dashed=0;shape=mxgraph.bootstrap.topButton;strokeColor=inherit;fillColor=#F7F7F7;rSize=5;perimeter=none;whiteSpace=wrap;resizeWidth=1;align=left;spacing=20;fontSize=14;fontColor=#FF3333;" vertex="1" parent="SilbnRKZhBk0i6iUXmSS-35">
          <mxGeometry width="800" height="40" relative="1" as="geometry" />
        </mxCell>
        <mxCell id="SilbnRKZhBk0i6iUXmSS-37" value="&lt;span style=&quot;color: rgb(50, 50, 50);&quot;&gt;&amp;gt; 10:37:00 : Beginning test&lt;/span&gt;&lt;br style=&quot;border-color: var(--border-color); color: rgb(50, 50, 50);&quot;&gt;&lt;span style=&quot;color: rgb(50, 50, 50);&quot;&gt;&amp;gt; 10:37:05 : Phase A of test proceeding&lt;/span&gt;&lt;br style=&quot;border-color: var(--border-color); color: rgb(50, 50, 50);&quot;&gt;&lt;span style=&quot;color: rgb(50, 50, 50);&quot;&gt;&amp;gt; 10:37:45 : Potential test collision encountered, awaiting technician intervention&lt;/span&gt;" style="perimeter=none;html=1;whiteSpace=wrap;fillColor=none;strokeColor=none;resizeWidth=1;verticalAlign=top;align=left;spacing=20;spacingTop=-10;fontSize=14;fontColor=#FF3333;" vertex="1" parent="SilbnRKZhBk0i6iUXmSS-35">
          <mxGeometry width="800" height="80" relative="1" as="geometry">
            <mxPoint y="40" as="offset" />
          </mxGeometry>
        </mxCell>
        <mxCell id="SilbnRKZhBk0i6iUXmSS-38" value="" style="html=1;shadow=0;dashed=0;shape=mxgraph.bootstrap.rrect;rSize=5;strokeColor=#DFDFDF;html=1;whiteSpace=wrap;fillColor=#FFFFFF;fontColor=#000000;fontSize=20;" vertex="1" parent="SilbnRKZhBk0i6iUXmSS-15">
          <mxGeometry x="320" y="370" width="800" height="280" as="geometry" />
        </mxCell>
        <mxCell id="SilbnRKZhBk0i6iUXmSS-39" value="&lt;font style=&quot;font-size: 20px;&quot;&gt;&lt;u&gt;&lt;i&gt;Technician Actions&lt;/i&gt;&lt;/u&gt;&lt;/font&gt;" style="html=1;shadow=0;dashed=0;shape=mxgraph.bootstrap.topButton;strokeColor=inherit;fillColor=#F7F7F7;rSize=5;perimeter=none;whiteSpace=wrap;resizeWidth=1;align=left;spacing=20;fontSize=14;fontColor=#000000;" vertex="1" parent="SilbnRKZhBk0i6iUXmSS-38">
          <mxGeometry width="800" height="40" relative="1" as="geometry" />
        </mxCell>
        <mxCell id="SilbnRKZhBk0i6iUXmSS-40" value="&lt;span style=&quot;font-size: 20px;&quot;&gt;&lt;span style=&quot;font-size: 16px;&quot;&gt;Test rail encountered a collision while performing test. Please check the rail and press &#39;Retry&#39; if ok to retry, or press &#39;Abort&#39; to abort and fail this test and proceed to the next test.&lt;/span&gt;&lt;/span&gt;" style="perimeter=none;html=1;whiteSpace=wrap;fillColor=none;strokeColor=none;resizeWidth=1;verticalAlign=top;align=left;spacing=20;spacingTop=-10;fontSize=14;fontColor=#000000;" vertex="1" parent="SilbnRKZhBk0i6iUXmSS-38">
          <mxGeometry width="800" height="120" relative="1" as="geometry">
            <mxPoint y="40" as="offset" />
          </mxGeometry>
        </mxCell>
        <mxCell id="SilbnRKZhBk0i6iUXmSS-41" value="Retry" style="html=1;shadow=0;dashed=0;shape=mxgraph.bootstrap.rrect;rSize=5;perimeter=none;whiteSpace=wrap;fillColor=#0085FC;strokeColor=none;fontColor=#ffffff;resizeWidth=1;fontSize=14;" vertex="1" parent="SilbnRKZhBk0i6iUXmSS-38">
          <mxGeometry y="1" width="120" height="40" relative="1" as="geometry">
            <mxPoint x="20" y="-60" as="offset" />
          </mxGeometry>
        </mxCell>
        <mxCell id="SilbnRKZhBk0i6iUXmSS-42" value="Abort" style="html=1;shadow=0;dashed=0;shape=mxgraph.bootstrap.rrect;rSize=5;perimeter=none;whiteSpace=wrap;fillColor=#0085FC;strokeColor=none;fontColor=#ffffff;resizeWidth=1;fontSize=14;" vertex="1" parent="SilbnRKZhBk0i6iUXmSS-38">
          <mxGeometry x="166" y="220" width="120" height="40" as="geometry" />
        </mxCell>
        <mxCell id="SilbnRKZhBk0i6iUXmSS-48" value="&lt;font color=&quot;#00cc00&quot;&gt;Product 1&lt;/font&gt;" style="strokeColor=none;fillColor=none;rSize=5;perimeter=none;whiteSpace=wrap;resizeWidth=1;align=left;spacing=20;fontSize=14;fontColor=#00CC00;fontColor=#4B5259;html=1;" vertex="1" parent="SilbnRKZhBk0i6iUXmSS-15">
          <mxGeometry x="10" y="14.928571428571558" width="110" height="35" as="geometry" />
        </mxCell>
        <mxCell id="SilbnRKZhBk0i6iUXmSS-43" value="" style="group" vertex="1" connectable="0" parent="SilbnRKZhBk0i6iUXmSS-15">
          <mxGeometry x="249" y="13.219999999999887" width="130.00000000000006" height="40" as="geometry" />
        </mxCell>
        <mxCell id="SilbnRKZhBk0i6iUXmSS-44" value="" style="html=1;shadow=0;dashed=0;shape=mxgraph.bootstrap.tabTop;strokeColor=#DFDFDF;fillColor=#ffffff;rSize=5;perimeter=none;whiteSpace=wrap;resizeWidth=1;align=left;spacing=20;fontSize=14;fontColor=#00CC00;" vertex="1" parent="SilbnRKZhBk0i6iUXmSS-43">
          <mxGeometry x="5.684341886080802e-14" width="130" height="40" as="geometry" />
        </mxCell>
        <mxCell id="SilbnRKZhBk0i6iUXmSS-57" value="&lt;font color=&quot;#ff0000&quot;&gt;Product 3&lt;/font&gt;" style="strokeColor=none;fillColor=none;rSize=5;perimeter=none;whiteSpace=wrap;resizeWidth=1;align=left;spacing=20;fontSize=14;fontColor=#FF0000;fontColor=#4B5259;html=1;" vertex="1" parent="SilbnRKZhBk0i6iUXmSS-43">
          <mxGeometry y="2.5000000000002363" width="120" height="35" as="geometry" />
        </mxCell>
        <mxCell id="SilbnRKZhBk0i6iUXmSS-58" value="" style="html=1;shadow=0;dashed=0;shape=mxgraph.basic.arc;startAngle=0.4;endAngle=1;strokeWidth=4;strokeColor=#FF0000;fontColor=#FF3333;fillColor=#FFCCCC;" vertex="1" parent="SilbnRKZhBk0i6iUXmSS-43">
          <mxGeometry x="90" y="8.000000000000236" width="20" height="20" as="geometry" />
        </mxCell>
        <mxCell id="SilbnRKZhBk0i6iUXmSS-55" value="Product 2" style="strokeColor=none;fillColor=none;rSize=5;perimeter=none;whiteSpace=wrap;resizeWidth=1;align=left;spacing=20;fontSize=14;fontColor=#FF9933;" vertex="1" parent="SilbnRKZhBk0i6iUXmSS-15">
          <mxGeometry x="129" y="13.210000000000013" width="120" height="40" as="geometry" />
        </mxCell>
        <mxCell id="SilbnRKZhBk0i6iUXmSS-56" value="" style="html=1;shadow=0;dashed=0;shape=mxgraph.basic.arc;startAngle=0.25;endAngle=1;strokeWidth=4;strokeColor=#FF9933;fontColor=#FF9933;fillColor=#FFCCCC;" vertex="1" parent="SilbnRKZhBk0i6iUXmSS-15">
          <mxGeometry x="219" y="21.210000000000015" width="20" height="19.958296097706285" as="geometry" />
        </mxCell>
      </root>
    </mxGraphModel>
  </diagram>
</mxfile>
